<svg width="235" height="243" viewBox="0 0 235 243" xmlns="http://www.w3.org/2000/svg"><title>Untitled 2</title><g transform="translate(-365 -381)" fill="none" fill-rule="evenodd"><circle stroke="#7CA5DE" stroke-width="2.284" fill="#F5F9FF" cx="482" cy="498" r="116"/><path d="M549.7 622.1c-.2-20.7-29.9-37.4-66.4-37.4-36.5 0-66.2 16.7-66.4 37.4h132.8z" stroke="#667683" stroke-width="2.52" fill="#7CA5DE"/><path d="M426.1 502.2s-13.5-4.3-13.5 13.7c0 15.1 7.1 20.7 7.1 20.7s1.2 1.7 5 1.7c1 0 2.2-.3 2.2-.3l-.8-35.8zm112.4 0s13.5-4.3 13.5 13.7c0 15.1-7.1 20.7-7.1 20.7s-1.2 1.7-5 1.7c-1 0-2.2-.3-2.2-.3l.8-35.8z" stroke="#667683" stroke-width="2.52" fill="#FFF6F7"/><path d="M417.5 511l3.5-1.5s4.5 13 3 15.5-1-7-3.5-7-2.5 4.5-2.5 4.5-1.5-9-.5-11.5zm129 0l-3.5-1.5s-4.5 13-3 15.5 1-7 3.5-7 2.5 4.5 2.5 4.5 1.5-9 .5-11.5z" fill="#E2DEDE"/><path d="M502.6 578.7c-2.8 2-5 3.4-5.9 3.9-1.6 1-9.4 2.6-15 2.9h.9-1.7.9c-5.6-.2-13.4-1.9-15-2.9-.9-.6-3.3-2.1-6.3-4.2l-.7-.1-2.5 8.7s1.4 15.7 24.6 15.7h.8c23.3 0 24.6-15.7 24.6-15.7l-2.5-8.7-2.2.4z" stroke="#667683" stroke-width="2.52" fill="#FFF6F7"/><path d="M482.5 595.5h-1.8 1.8zm23.3-9.2l-2.1-7.4-2.1.4c-2.8 2-4 2.8-4.9 3.4-1.6 1-9.4 2.6-15 2.9h.9-1.7.9c-5.6-.2-13.4-1.9-15-2.9-.9-.6-2.3-1.6-5.4-3.7l-.7-.1-2.3 8c4.4 3.1 7.1 4.2 8.3 5 1.6 1 9.4 2.6 15 2.9 5.6-.2 13.4-1.9 15-2.9 1.2-.9 4.3-2.2 9.1-5.6z" fill="#E2DEDE"/><path d="M480.5 585.4c5.6-.1 14.2-1.8 15.9-2.8 3.4-2 25.8-16.9 31.5-24.3 5.8-7.4 8.8-21.3 8.8-24.8s1.5-47.5 1.5-47.5v-.5s-4.3-14-5.5-21.8c-1.2-7.9-2.2-19.3-17.8-20.5 0 0-24.4 6.7-33.5 6.7h-.1c-9 0-33.5-6.7-33.5-6.7-15.5 1.2-16.5 12.6-17.8 20.5-1.2 7.7-5.5 21.8-5.5 21.8v.5s1.5 43.9 1.5 47.5c0 3.6 3 17.4 8.8 24.8 5.8 7.4 28.1 22.3 31.5 24.3 1.7 1 10.3 2.8 15.9 2.8h-1.7z" stroke="#667683" stroke-width="2.499" fill="#FFF6F7"/><ellipse fill="#FFE0E1" transform="rotate(4.594 449.994 515.534)" cx="449.894" cy="515.734" rx="6.9" ry="6.7"/><ellipse fill="#FFE0E1" transform="rotate(4.594 512.004 515.546)" cx="511.904" cy="515.746" rx="6.9" ry="6.7"/><path d="M491.2 568c-2.7 1.1-6.1 1.8-9.8 1.8-3.5 0-6.8-.6-9.4-1.6-1.4.7-2.3 1.5-2.3 2.5 0 2.3 5.4 4.2 12.1 4.2 6.7 0 12.1-1.9 12.1-4.2 0-1.1-1-2-2.7-2.7z" fill="#E2DEDE"/><path d="M463.8 551.5l15.8 2.3 18.4-2 1.5.9-2.7 3-8 3.5-8.2.5-6.6-.9-4.4-1.6-4.3-2.7-1.5-3z" fill="#FFF"/><path d="M505.6 552.3c-.6-2.4-4.9-2-14.7-.7-3 .4-5.8.8-7.4.8h-2.9c-1.5 0-4.4-.4-7.4-.8-9.8-1.3-14.1-1.7-14.7.7-.2.6.2 1.2.8 1.4.5.1.4-1 .6-1.5.6-.3 3.1-.1 5.4.3h.1c.2.1-1.6.4-.9.9 3.6 2.8 7.7 5.9 10 6.6 2.9.8 5.3.9 7.4 1h.2c2.1 0 4.6-.1 7.4-1 2.3-.7 6.4-3.7 10-6.6.5-.4-.2-.7-.6-1 2.2-.4 4.5-.6 5.1-.3.2.5.3 1.6.8 1.5.6-.1.9-.7.8-1.3zm-16.7 5.5c-2.6.8-4.9.9-6.9.9s-4.3-.1-6.9-.9c-1.7-.5-5.2-3.1-7.7-5 2 .4 4.1.8 5.6 1 3.2.4 6 .8 7.6.8h2.9c1.7 0 4.4-.4 7.6-.8 1.5-.2 3.5-.6 5.4-1-2.4 2-5.9 4.5-7.6 5z" fill="#667683"/><path d="M449.9 506.1c.8 0 1.7.1 2.6.1 1.2.1 2.3.2 3.4.4 1.2-.8 2.1-2.3 2.1-3.9 0-2.6-2.1-4.7-4.7-4.7s-4.7 2.1-4.7 4.7c-.1 1.4.4 2.6 1.3 3.4zm4.6-5.7c.9 0 1.6.7 1.6 1.6 0 .9-.7 1.6-1.6 1.6-.9 0-1.6-.7-1.6-1.6 0-.9.7-1.6 1.6-1.6zm52.8 6.3c1.1-.2 2.2-.3 3.4-.4.9-.1 1.8-.1 2.6-.1.9-.9 1.4-2 1.4-3.3 0-2.6-2.1-4.7-4.7-4.7s-4.7 2.1-4.7 4.7c-.1 1.5.7 2.9 2 3.8zm1.3-6.3c.9 0 1.6.7 1.6 1.6 0 .9-.7 1.6-1.6 1.6-.9 0-1.6-.7-1.6-1.6 0-.9.7-1.6 1.6-1.6z" fill="#3D434C"/><path d="M537.8 502l1.1-.5c0-.2 1.9-34.8 1.4-37.7-.5-2.9 1.8-41.6-55.8-42.3H479c-57.5.7-55.2 39.4-55.7 42.3-.5 2.9.9 38.2.9 38.2l1.1.4c-.3-8.6-.5-5.5-.5-5.5v-.5s4.3-24.3 5.5-32.1c1.2-8 2.2-19.6 17.7-20.9 0 0 12 3.5 22.7 5.4.3.1.6.1.9.2.6.2 2 .5 2.1.6 4.6 9 17 7.3 18.4 7.2.3 0 .7-.1 1-.1 1.6-.3 1.6-2.7 0-3-.9-.2-1.7-.3-2.3-.6-2.1-.7-1.8-3.7.3-4.1 10.6-1.9 24-5.7 24-5.7 15.5 1.2 16.5 12.9 17.7 20.9 1.2 7.9 5.5 32.1 5.5 32.1v.5c0 .1-.2-3.2-.5 5.2z" stroke="#667683" stroke-width="2.52" fill="#929EB0"/><path d="M544.7 492.3c0-.6-.5-1.1-1.2-1.1-7.1.2-44.8 1.2-49.5 2.9-2.3.8-4.2 2.5-5.4 3.8-1 1.1-2.4 1.8-4 1.8H478c-1.5 0-2.9-.7-4-1.8-1.2-1.3-3-3-5.4-3.8-4.7-1.7-42.4-2.7-49.5-2.9-.6 0-1.1.5-1.2 1.1l-.1 2.5c0 1.4.5 2.7 1.6 3.6l.6.5c.8.7 1.3 1.7 1.5 2.7.7 4.5 2.5 15.7 3.2 18 .5 1.7 2.5 2.4 4.1 2.9.6.2 8.9 1.8 17.7 2.3 1.8.1 3.6.1 5.5.1 7.3 0 16.1-.7 17.4-1.5 4-2.4 6.2-13.2 6.5-16.6.2-2.5 4.1-3.1 4.9-3.2h.4c.9.1 5.1.6 5.3 3.2.3 3.3 2.6 14.1 6.6 16.6 1.3.8 9.8 1.5 17.1 1.5 1.8 0 3.6 0 5.3-.1 9-.4 17.3-2.1 17.9-2.3 1.7-.5 3.6-1.2 4.1-2.9.7-2.4 2.5-13.5 3.2-18 .2-1.1.7-2 1.5-2.7l.6-.5c1-.9 1.6-2.2 1.6-3.6l.3-2.5zm-54.1 10.4c.1-.7.4-1.4.8-1.9.7-.9 2.2-2.3 4.7-3.2 2.9-1 21.5-2.2 33.1-2.2h3.4c2.6.1 3.8 2.4 3.6 5-.6 5.9-1.2 15.3-1.7 17.2-.2.7-1.1 1.3-2.8 1.7-.6.2-8.1 1.7-16 2-1.5.1-3 .1-4.6.1-7.8 0-14.9-.8-15.6-1.2-2.8-1.7-4.3-10.4-4.9-13.5-.2-1.7-.1-3.1 0-4zm-64-2.1c-.3-2.6.9-5 3.5-5.1h3.4c11.6 0 30.2 1.2 33.1 2.2 2.5.8 4 2.2 4.7 3.2.4.6.7 1.2.8 1.9.2.9.3 2.3-.1 4.2-.5 3.2-2.1 11.8-4.9 13.5-.8.5-8 1.2-15.7 1.2-1.6 0-3.2 0-4.8-.1-7.9-.3-15.2-1.9-15.8-2-1.7-.5-2.6-1-2.8-1.7-.3-2.1-.8-11.5-1.4-17.3z" fill="#3D434C"/><path d="M422.6 496.7l-1.8-1.8 1.8-1.7 1.7 1.7-1.7 1.8zm117.3 0l-1.8-1.8 1.8-1.7 1.7 1.7-1.7 1.8z" fill="#FFF"/><path d="M470.9 490.2l.9-.3c.4-.6.9-1.1 1.4-1.5-9.3-3.7-31.2-5.3-34.3-4.8-1.7.3-3.1 1.4-4 2.6-.6.7-.4 1.7.3 2.2l.1.1c.4.3 1 .3 1.5.1 1.4-.7 3.6-1.1 4.7-1.4 3.9-.7 20.7.9 28.8 3.2.1-.1.5-.2.6-.2zm19.8 0l-.9-.3c-.4-.6-.9-1.1-1.4-1.5 9.3-3.7 31.2-5.3 34.3-4.8 1.7.3 3.1 1.4 4 2.6.6.7.4 1.7-.3 2.2l-.1.1c-.4.3-1 .3-1.5.1-1.4-.7-3.6-1.1-4.7-1.4-3.9-.7-20.7.9-28.8 3.2-.1-.1-.5-.2-.6-.2z" fill="#667683"/><path d="M486.5 539.5c-4.2 0-7.8-2.2-9.8-5.4-.9-.2-1.7-.5-2.5-.8-1.4-.6-3-.1-3.6 1.3-.2.4-.3.8-.3 1.2 0 3.1 5 5.7 11.2 5.7 4.5 0 8.3-1.3 10.1-3.2-1.5.7-3.2 1.2-5.1 1.2z" fill="#E2DEDE"/><path d="M482.2 543.6c-3.6 0-5.5-1.6-6.5-2.5l-.3-.3c-.2-.2-.6-.3-.9-.4l-2.9-.6c-.6-.1-1-.7-.9-1.3.1-.6.7-1 1.3-.9l2.9.6c.7.1 1.4.5 1.9.9l.3.3c.9.8 2.2 2 5 2 2.9 0 4.3-1.2 5.3-2l.3-.2c.5-.4 1.2-.8 1.9-.9l2.9-.6c.6-.1 1.2.3 1.3.9.1.6-.3 1.2-.9 1.3l-2.9.6c-.3.1-.6.2-.9.4l-.2.2c-1.1.9-3 2.5-6.7 2.5z" fill="#667683"/></g></svg>